<svg width="63" height="51" viewBox="0 0 63 51" fill="none" xmlns="http://www.w3.org/2000/svg">
<path d="M60.1357 11.6789C59.4584 12.3623 58.7059 12.8939 57.8029 13.1976C52.159 15.5515 44.4833 15.3996 39.5919 24.5874C37.1086 29.2952 37.2591 33.0159 38.9147 36.8125C39.4414 38.1033 40.194 38.9386 40.796 39.4701C42.6773 41.2166 43.7308 40.4572 45.0101 41.9C45.9883 42.8871 45.9883 44.4816 45.0101 45.4688C44.0318 46.4559 42.4515 46.5318 41.4732 45.4688C38.7642 42.5074 36.8829 41.4444 34.8511 43.7983C34.6253 44.102 34.3243 44.3298 34.0985 44.6335C26.4229 52.4545 13.7805 52.5305 5.87909 44.6335C-1.94711 36.8125 -1.94711 24.0559 5.80384 16.1589C12.2755 9.55284 22.2087 8.41385 29.8092 12.8179C38.8394 17.6776 44.1823 14.7162 47.4181 7.95826C48.8479 4.92097 49.6757 3.17453 51.858 1.27623C54.0403 -0.622078 57.4266 -0.470214 60.0604 2.18741C62.6943 4.76911 62.6943 9.02131 60.1357 11.6789Z" fill="#3F4AFE"/>
<path d="M28.654 24H26.6974V28.48C26.0202 28.0244 25.1924 27.7966 24.2894 27.7966C21.8813 27.7966 20 29.7708 20 32.1247C20 34.5546 21.9566 36.4529 24.2894 36.4529C26.6974 36.4529 28.5787 34.4786 28.5787 32.1247V24H28.654ZM24.2894 34.5546C23.0101 34.5546 21.8813 33.4915 21.8813 32.1247C21.8813 30.8339 22.9348 29.6949 24.2894 29.6949C25.5686 29.6949 26.6974 30.758 26.6974 32.1247C26.6974 33.4156 25.6439 34.5546 24.2894 34.5546Z" fill="white"/>
<path d="M16.6211 23.9502C18.1619 23.9502 18.9954 24.5293 19.4424 25.1152C19.6651 25.4072 19.7906 25.699 19.8604 25.918C19.8952 26.0274 19.9164 26.1193 19.9287 26.1836C19.9348 26.2153 19.9389 26.2404 19.9414 26.2578C19.9426 26.2665 19.9438 26.2736 19.9443 26.2783V26.2861L19.9502 26.3408H18.3672L18.3525 26.3174L18.3516 26.3154C18.3508 26.3142 18.3493 26.3121 18.3477 26.3096C18.3441 26.3043 18.3385 26.2963 18.3311 26.2861C18.316 26.2656 18.2925 26.2361 18.2607 26.2002C18.1969 26.1281 18.0979 26.0314 17.96 25.9346C17.6846 25.7413 17.2513 25.5459 16.6211 25.5459C16.0703 25.5459 15.5823 25.7085 15.2324 26.0479C14.883 26.3869 14.6651 26.9085 14.665 27.6377V29.5215H18.4453V31.3408H14.665V36.3408H12.9502V27.6377C12.9503 26.4122 13.3193 25.4883 13.9668 24.8711C14.6139 24.2544 15.5327 23.9502 16.6211 23.9502Z" fill="white" stroke="white" stroke-width="0.1"/>
</svg>
